<?xml version="1.0" standalone="no"?>
<!DOCTYPE svg PUBLIC "-//W3C//DTD SVG 20010904//EN"
 "http://www.w3.org/TR/2001/REC-SVG-20010904/DTD/svg10.dtd">
<svg version="1.0" xmlns="http://www.w3.org/2000/svg"
 width="256.000000pt" height="256.000000pt" viewBox="0 0 256.000000 256.000000"
 preserveAspectRatio="xMidYMid meet">
<metadata>
Created by potrace 1.14, written by Peter Selinger 2001-2017
</metadata>
<g transform="translate(0.000000,256.000000) scale(0.100000,-0.100000)"
fill="#000000" stroke="none">
<path d="M2235 2481 c-104 -41 -192 -88 -255 -135 -30 -23 -82 -63 -115 -88
-33 -25 -71 -49 -85 -53 -29 -9 -100 -56 -119 -79 -8 -9 -17 -16 -22 -16 -17
0 -9 37 11 55 29 26 26 55 -6 55 -45 0 -91 -30 -159 -101 -55 -58 -77 -94
-141 -226 -69 -143 -82 -163 -147 -228 -118 -116 -175 -157 -208 -150 -15 4
-40 8 -56 10 -15 2 -45 11 -65 19 -21 9 -55 16 -76 16 -51 0 -60 11 -22 26 21
9 28 18 24 29 -9 23 -52 29 -117 16 -33 -7 -61 -10 -64 -8 -2 3 10 21 26 40
17 19 31 41 31 50 0 38 -63 23 -114 -28 -44 -44 -46 -27 -5 52 75 149 28 189
-68 58 -32 -44 -40 -23 -19 53 29 105 30 118 11 126 -26 9 -72 -47 -91 -110
-24 -83 -36 -67 -32 44 3 93 2 97 -19 100 -17 3 -27 -6 -43 -39 -22 -42 -23
-89 -5 -191 5 -24 3 -38 -3 -38 -12 0 -38 77 -47 140 -12 82 -35 140 -56 140
-12 0 -21 -9 -25 -27 -3 -16 -7 -33 -9 -39 -7 -23 15 -105 46 -169 21 -44 28
-70 21 -77 -11 -11 -81 99 -132 210 -37 81 -64 94 -67 32 -3 -87 44 -179 144
-276 99 -95 95 -107 -11 -37 -54 35 -76 41 -76 20 0 -29 104 -104 213 -152 37
-17 67 -33 67 -36 0 -4 -19 -11 -42 -17 -77 -20 -184 -132 -207 -218 -6 -23
-20 -49 -32 -60 -58 -52 -60 -106 -8 -179 48 -67 79 -72 74 -11 -4 38 5 48 75
88 57 32 82 37 205 40 134 3 170 -18 255 -147 43 -65 85 -110 138 -147 l42
-29 -48 -33 c-27 -18 -65 -47 -85 -66 -52 -47 -189 -140 -207 -140 -8 0 -38
15 -66 34 -48 33 -74 39 -90 23 -4 -4 -15 -7 -24 -7 -27 0 -51 -24 -60 -60 -5
-19 -21 -68 -35 -108 -27 -73 -27 -73 -9 -113 9 -22 26 -44 35 -50 17 -8 18
-5 12 40 -5 41 -2 55 16 80 12 17 26 31 31 31 5 0 14 -17 19 -38 7 -23 23 -47
41 -60 l30 -23 9 24 c5 13 25 35 45 50 24 19 37 39 42 62 8 43 30 57 94 59 40
1 52 -4 75 -26 15 -16 33 -28 39 -28 18 0 82 -57 74 -65 -15 -16 -59 -6 -103
23 -40 26 -50 29 -76 20 -51 -17 -165 -159 -178 -220 -9 -38 5 -88 24 -88 7 0
15 18 19 40 4 26 20 56 49 89 23 27 50 61 60 75 13 19 27 26 52 26 46 0 54
-18 20 -43 -15 -12 -38 -45 -51 -74 -17 -39 -29 -53 -44 -53 -11 0 -20 -7 -20
-15 0 -8 7 -15 15 -15 8 0 18 -14 23 -32 10 -40 29 -47 42 -14 5 14 27 38 49
53 22 16 54 52 73 81 18 28 49 63 69 76 l36 25 59 -31 c33 -17 68 -38 79 -48
31 -26 94 -60 113 -60 9 0 26 -7 36 -15 11 -8 23 -15 28 -15 10 0 6 43 -5 51
-4 3 4 22 18 43 18 27 25 50 25 85 0 77 56 221 86 221 8 0 24 -21 36 -47 17
-39 21 -69 22 -163 1 -122 13 -158 66 -203 27 -22 41 -22 74 4 27 21 27 21 49
2 62 -54 247 -97 247 -58 0 18 1 18 36 0 16 -8 45 -15 64 -15 19 0 50 -4 68
-9 36 -11 66 8 56 34 -7 16 11 21 20 6 8 -12 94 -52 124 -57 22 -4 24 -2 20
21 -4 19 -1 25 13 25 10 0 20 -4 24 -9 6 -10 57 -7 75 4 18 11 11 27 -30 66
-36 34 -38 39 -24 53 34 35 9 57 -171 151 -117 62 -150 81 -177 105 -9 8 -46
33 -83 55 -173 106 -221 141 -250 186 -170 263 -205 320 -205 329 0 13 -4 14
62 -19 90 -46 181 -33 282 42 25 17 45 37 45 42 1 6 -12 23 -29 38 -16 16 -30
36 -30 44 0 14 3 13 25 -1 82 -53 68 -53 127 6 30 29 67 62 83 74 l29 21 -23
29 -23 29 28 3 c52 6 76 44 46 74 -20 20 -14 28 24 28 72 0 94 33 49 72 -34
29 -31 39 8 37 72 -5 100 24 67 71 -22 31 -18 42 14 31 27 -10 85 -3 101 12 9
9 10 19 3 40 -6 15 -8 30 -6 33 3 2 32 -13 64 -34 71 -47 112 -62 171 -62 88
0 64 45 -69 133 -74 48 -92 67 -67 67 6 0 43 -15 82 -34 102 -47 116 -51 124
-30 16 42 -147 137 -268 158 -77 13 -92 22 -58 34 26 10 140 1 227 -18 179
-38 142 41 -43 91 -85 23 -118 22 -282 -4 -74 -12 -118 -9 -102 8 18 17 309
100 389 111 78 10 160 51 160 79 0 25 -68 38 -159 32 -114 -9 -215 -35 -338
-91 -190 -85 -202 -72 -42 44 57 42 156 108 219 148 150 93 160 100 160 117 0
24 -77 17 -155 -14z m-1812 -1972 c29 -16 36 -27 30 -50 -5 -18 -48 -59 -62
-59 -4 0 -8 12 -9 27 -1 14 -9 34 -17 43 -24 26 -19 50 11 50 14 0 35 -5 47
-11z"/>
</g>
</svg>
