{
    "asset" : {
        "generator" : "Khronos glTF Blender I/O v3.2.43",
        "version" : "2.0"
    },
    "extensionsUsed" : [
        "KHR_materials_transmission"
    ],
    "scene" : 0,
    "scenes" : [
        {
            "name" : "Scene",
            "nodes" : [
                0,
                1,
                2
            ]
        }
    ],
    "nodes" : [
        {
            "mesh" : 0,
            "name" : "Cube"
        },
        {
            "mesh" : 1,
            "name" : "Tree_average_lush",
            "scale" : [
                0.48603132367134094,
                0.4171472191810608,
                0.5022599101066589
            ],
            "translation" : [
                6.4196696281433105,
                -0.9952396750450134,
                -2.232830762863159
            ]
        },
        {
            "mesh" : 2,
            "name" : "Tree_average_lush.001",
            "scale" : [
                0.48603132367134094,
                0.4171472191810608,
                0.5022599101066589
            ],
            "translation" : [
                6.4196696281433105,
                -0.9952396750450134,
                -2.232830762863159
            ]
        }
    ],
    "materials" : [
        {
            "doubleSided" : true,
            "emissiveFactor" : [
                1,
                1,
                1
            ],
            "extensions" : {
                "KHR_materials_transmission" : {
                    "transmissionFactor" : 1
                }
            },
            "name" : "Material.012",
            "pbrMetallicRoughness" : {
                "baseColorFactor" : [
                    0.07279264181852341,
                    0.6893893480300903,
                    0.8000000715255737,
                    1
                ],
                "roughnessFactor" : 0.5
            }
        },
        {
            "doubleSided" : true,
            "name" : "Material.013",
            "pbrMetallicRoughness" : {
                "baseColorFactor" : [
                    0,
                    0.16818705201148987,
                    0.8000000715255737,
                    1
                ],
                "metallicFactor" : 0,
                "roughnessFactor" : 0.5
            }
        },
        {
            "doubleSided" : true,
            "emissiveFactor" : [
                0.0266749952256653,
                0.004776208868910725,
                0
            ],
            "name" : "Material.014",
            "pbrMetallicRoughness" : {
                "baseColorFactor" : [
                    0.800000011920929,
                    0.800000011920929,
                    0.800000011920929,
                    1
                ],
                "metallicFactor" : 0,
                "roughnessFactor" : 0.5
            }
        }
    ],
    "meshes" : [
        {
            "name" : "Cube",
            "primitives" : [
                {
                    "attributes" : {
                        "POSITION" : 0,
                        "NORMAL" : 1,
                        "TEXCOORD_0" : 2
                    },
                    "indices" : 3,
                    "material" : 0
                }
            ]
        },
        {
            "name" : "Cube.020",
            "primitives" : [
                {
                    "attributes" : {
                        "POSITION" : 4,
                        "NORMAL" : 5,
                        "TEXCOORD_0" : 6
                    },
                    "indices" : 7,
                    "material" : 1
                }
            ]
        },
        {
            "name" : "Cube.028",
            "primitives" : [
                {
                    "attributes" : {
                        "POSITION" : 8,
                        "NORMAL" : 9
                    },
                    "indices" : 10,
                    "material" : 2
                }
            ]
        }
    ],
    "accessors" : [
        {
            "bufferView" : 0,
            "componentType" : 5126,
            "count" : 755,
            "max" : [
                7.236630439758301,
                1.012959361076355,
                3.3123960494995117
            ],
            "min" : [
                -1,
                -1.0113552808761597,
                -3.336475372314453
            ],
            "type" : "VEC3"
        },
        {
            "bufferView" : 1,
            "componentType" : 5126,
            "count" : 755,
            "type" : "VEC3"
        },
        {
            "bufferView" : 2,
            "componentType" : 5126,
            "count" : 755,
            "type" : "VEC2"
        },
        {
            "bufferView" : 3,
            "componentType" : 5123,
            "count" : 1425,
            "type" : "SCALAR"
        },
        {
            "bufferView" : 4,
            "componentType" : 5126,
            "count" : 1966,
            "max" : [
                6.653200149536133,
                14.659798622131348,
                6.713106632232666
            ],
            "min" : [
                -8.017291069030762,
                5.098987102508545,
                -6.528043746948242
            ],
            "type" : "VEC3"
        },
        {
            "bufferView" : 5,
            "componentType" : 5126,
            "count" : 1966,
            "type" : "VEC3"
        },
        {
            "bufferView" : 6,
            "componentType" : 5126,
            "count" : 1966,
            "type" : "VEC2"
        },
        {
            "bufferView" : 7,
            "componentType" : 5123,
            "count" : 2166,
            "type" : "SCALAR"
        },
        {
            "bufferView" : 8,
            "componentType" : 5126,
            "count" : 168,
            "max" : [
                1.4673819541931152,
                8.158700942993164,
                3.055562734603882
            ],
            "min" : [
                -3.2430527210235596,
                -0.0017659016884863377,
                -1.6025663614273071
            ],
            "type" : "VEC3"
        },
        {
            "bufferView" : 9,
            "componentType" : 5126,
            "count" : 168,
            "type" : "VEC3"
        },
        {
            "bufferView" : 10,
            "componentType" : 5123,
            "count" : 258,
            "type" : "SCALAR"
        }
    ],
    "bufferViews" : [
        {
            "buffer" : 0,
            "byteLength" : 9060,
            "byteOffset" : 0
        },
        {
            "buffer" : 0,
            "byteLength" : 9060,
            "byteOffset" : 9060
        },
        {
            "buffer" : 0,
            "byteLength" : 6040,
            "byteOffset" : 18120
        },
        {
            "buffer" : 0,
            "byteLength" : 2850,
            "byteOffset" : 24160
        },
        {
            "buffer" : 0,
            "byteLength" : 23592,
            "byteOffset" : 27012
        },
        {
            "buffer" : 0,
            "byteLength" : 23592,
            "byteOffset" : 50604
        },
        {
            "buffer" : 0,
            "byteLength" : 15728,
            "byteOffset" : 74196
        },
        {
            "buffer" : 0,
            "byteLength" : 4332,
            "byteOffset" : 89924
        },
        {
            "buffer" : 0,
            "byteLength" : 2016,
            "byteOffset" : 94256
        },
        {
            "buffer" : 0,
            "byteLength" : 2016,
            "byteOffset" : 96272
        },
        {
            "buffer" : 0,
            "byteLength" : 516,
            "byteOffset" : 98288
        }
    ],
    "buffers" : [
        {
            "byteLength" : 98804,
            "uri" : "data:application/octet-stream;base64,"
        }
    ]
}
